<svg width="112" height="112" viewBox="0 0 112 112" fill="none" xmlns="http://www.w3.org/2000/svg">
<circle cx="56" cy="56" r="56" fill="#1E3549"/>
<path d="M54.5 53.4688C56.7437 53.4688 58.5625 51.6499 58.5625 49.4062C58.5625 47.1626 56.7437 45.3438 54.5 45.3438C52.2563 45.3438 50.4375 47.1626 50.4375 49.4062C50.4375 51.6499 52.2563 53.4688 54.5 53.4688Z" stroke="#FEFEFE" stroke-width="2" stroke-miterlimit="10" stroke-linecap="round" stroke-linejoin="round"/>
<path d="M42.3125 55.2969C38.4531 58.3437 35.4063 62.6094 34.1875 67.6875H38.8594C41.9063 67.6875 44.1406 64.8438 43.3281 62C42.5156 59.1563 42.1094 56.3125 42.1094 53.2656C42.3125 42.0937 47.3906 32.5469 54.5 29.0938C61.6094 32.5469 66.6875 42.0938 66.6875 53.0625C66.6875 56.1094 66.2812 59.1563 65.4687 61.7969C64.6562 64.6406 66.8906 67.4844 69.9375 67.4844H74.8125C73.5937 62.4062 70.5469 57.9375 66.6875 55.0938" stroke="#FEFEFE" stroke-width="2" stroke-miterlimit="10" stroke-linecap="round" stroke-linejoin="round"/>
<path d="M54.5 67.6875V83.9375" stroke="white" stroke-width="2" stroke-miterlimit="10" stroke-linecap="round" stroke-linejoin="round"/>
<path d="M48.4062 71.75V79.875" stroke="white" stroke-width="2" stroke-miterlimit="10" stroke-linecap="round" stroke-linejoin="round"/>
<path d="M60.5938 71.75V79.875" stroke="white" stroke-width="2" stroke-miterlimit="10" stroke-linecap="round" stroke-linejoin="round"/>
</svg>
