<svg width="112" height="112" viewBox="0 0 112 112" fill="none" xmlns="http://www.w3.org/2000/svg">
<circle cx="56" cy="56" r="56" fill="#1E3549"/>
<path d="M76.1429 45.774C72.2468 42.6986 67.1818 40.8293 61.6623 40.8293C59.974 40.8293 58.3507 41.0102 56.7922 41.3117C55.9481 37.2715 52.6364 34.3168 47.1169 32.8092C42.961 31.6635 39 31.7841 38.8701 31.7841C38.3506 31.7841 37.961 32.2062 37.8961 32.6886C37.8961 33.171 38.2857 33.5931 38.8052 33.5931C42.2468 33.774 43.1558 37.8142 43.4156 39.0203C43.9351 42.0353 43.1558 44.3871 42.5714 44.568C41.987 44.8092 41.2727 44.6886 40.5584 44.3871C39 43.6635 36.9221 41.5529 35.7532 37.6936C32.7013 28.3469 24.974 29.0102 24.8442 29.0102C24.3896 29.0705 24 29.4324 24 29.8545C24 30.2766 24.2597 30.6987 24.7792 30.8193C28.8701 31.6635 28.026 37.9951 27.3117 43.6032C27.0519 45.7137 26.7922 47.7036 26.7922 49.3318C27.0519 63.2011 37.5065 64.8292 39.5844 65.0101C40.5584 70.5578 43.9351 75.5628 49.0649 78.8191C49.1948 78.9397 49.3896 79 49.5844 79H73.7403C74 79 74.2597 78.8794 74.4545 78.6985C80.4286 74.7789 84 68.4473 84 61.6332C84 55.9649 81.5325 50.779 77.5065 46.98L76.1429 45.774ZM28.7403 49.2715C28.7403 47.8242 28.9351 45.8343 29.1948 43.8444C29.7143 39.6233 30.3636 34.6786 28.6753 31.6635C30.4935 32.568 32.5714 34.4374 33.7403 38.2966C34.9091 42.0353 37.1169 44.9298 39.5844 46.0755C40.8182 46.6182 42.0519 46.7388 43.1558 46.3167C45.1688 45.5931 45.7532 41.9147 45.2338 38.7791C44.9091 36.7891 44.1299 35.1007 43.1558 33.955C47.5065 34.558 53.7403 36.4273 54.8442 41.8544C45.8182 44.5077 39.2597 52.4071 39.2597 61.6935C39.2597 62.2362 39.2597 62.7187 39.3247 63.2614C36.987 62.8996 29 61.0905 28.7403 49.2715ZM73.4156 77.1307H49.9091C44.5844 73.6332 41.4026 68.0252 41.2078 61.995H45.039C45.5584 61.995 46.013 61.5729 46.013 61.0905C46.013 60.6081 45.5584 60.186 45.039 60.186H41.2727C41.5974 55.9649 43.4805 52.1056 46.3377 49.0906L49.1948 51.7438C49.3896 51.9247 49.6493 51.985 49.9091 51.985C50.1688 51.985 50.4286 51.9247 50.6234 51.7438C51.013 51.382 51.013 50.8393 50.6234 50.4775L47.7013 47.7639C51.1429 44.7489 55.6883 42.8795 60.6883 42.6383V46.4976C60.6883 46.98 61.1429 47.4021 61.6623 47.4021C62.1818 47.4021 62.6364 46.98 62.6364 46.4976V42.6383C67.2468 42.8192 71.4026 44.4474 74.7143 47.0403L71.1429 50.3569C70.7533 50.7187 70.7533 51.2614 71.1429 51.6232C71.3377 51.8041 71.5974 51.8644 71.8571 51.8644C72.1169 51.8644 72.3766 51.8041 72.5714 51.6232L76.2078 48.2464C79.0649 50.8996 81.0779 54.3971 81.7922 58.2564C81.7922 58.3167 81.987 60.0654 81.987 60.1257H78.2857C77.7662 60.1257 77.3117 60.5478 77.3117 61.0302C77.3117 61.5126 77.7662 61.9347 78.2857 61.9347H82.1169C82.1818 62.4171 82.1169 61.1508 82.1169 61.6332C82.1169 67.784 78.8701 73.5729 73.4156 77.1307Z" fill="#FEFEFE"/>
<path d="M74.7793 60.186H66.1429C65.6884 58.2564 63.8702 56.8694 61.6624 56.8694C59.1299 56.8694 57.1169 58.7991 57.1169 61.0905C57.1169 63.382 59.1949 65.3116 61.6624 65.3116C63.8702 65.3116 65.6884 63.8644 66.1429 61.9951H74.8442C75.3637 61.9951 75.8182 61.5729 75.8182 61.0905C75.8182 60.6081 75.2988 60.186 74.7793 60.186ZM61.6624 63.5026C60.2338 63.5026 59.065 62.4172 59.065 61.0905C59.065 59.7639 60.2338 58.6785 61.6624 58.6785C63.091 58.6785 64.3247 59.7639 64.3247 61.0905C64.3247 62.4172 63.091 63.5026 61.6624 63.5026Z" fill="#FEFEFE"/>
</svg>
