<svg width="360" height="674" viewBox="0 0 360 674" fill="none" xmlns="http://www.w3.org/2000/svg">
<rect width="360" height="665" fill="#1E3549"/>
<path d="M29 14L31.2451 20.9098H38.5106L32.6327 25.1803L34.8779 32.0902L29 27.8197L23.1221 32.0902L25.3673 25.1803L19.4894 20.9098H26.7549L29 14Z" fill="#C4C4C4"/>
<path d="M126 57L128.245 63.9098H135.511L129.633 68.1803L131.878 75.0902L126 70.8197L120.122 75.0902L122.367 68.1803L116.489 63.9098H123.755L126 57Z" fill="#C4C4C4"/>
<path d="M239 30L241.245 36.9098H248.511L242.633 41.1803L244.878 48.0902L239 43.8197L233.122 48.0902L235.367 41.1803L229.489 36.9098H236.755L239 30Z" fill="#C4C4C4"/>
<path d="M342 57L344.245 63.9098H351.511L345.633 68.1803L347.878 75.0902L342 70.8197L336.122 75.0902L338.367 68.1803L332.489 63.9098H339.755L342 57Z" fill="#C4C4C4"/>
<path d="M294 208L296.245 214.91H303.511L297.633 219.18L299.878 226.09L294 221.82L288.122 226.09L290.367 219.18L284.489 214.91H291.755L294 208Z" fill="#C4C4C4"/>
<path d="M342 249L344.245 255.91H351.511L345.633 260.18L347.878 267.09L342 262.82L336.122 267.09L338.367 260.18L332.489 255.91H339.755L342 249Z" fill="#C4C4C4"/>
<path d="M356 363L358.245 369.91H365.511L359.633 374.18L361.878 381.09L356 376.82L350.122 381.09L352.367 374.18L346.489 369.91H353.755L356 363Z" fill="#C4C4C4"/>
<path d="M36 208L38.2451 214.91H45.5106L39.6327 219.18L41.8779 226.09L36 221.82L30.1221 226.09L32.3673 219.18L26.4894 214.91H33.7549L36 208Z" fill="#C4C4C4"/>
<path d="M14 402L16.2451 408.91H23.5106L17.6327 413.18L19.8779 420.09L14 415.82L8.12215 420.09L10.3673 413.18L4.48944 408.91H11.7549L14 402Z" fill="#C4C4C4"/>
<path d="M46 547L48.2451 553.91H55.5106L49.6327 558.18L51.8779 565.09L46 560.82L40.1221 565.09L42.3673 558.18L36.4894 553.91H43.7549L46 547Z" fill="#C4C4C4"/>
<path d="M93 479L95.2451 485.91H102.511L96.6327 490.18L98.8779 497.09L93 492.82L87.1221 497.09L89.3673 490.18L83.4894 485.91H90.7549L93 479Z" fill="#C4C4C4"/>
<path d="M115 618L117.245 624.91H124.511L118.633 629.18L120.878 636.09L115 631.82L109.122 636.09L111.367 629.18L105.489 624.91H112.755L115 618Z" fill="#C4C4C4"/>
<path d="M322 499L324.245 505.91H331.511L325.633 510.18L327.878 517.09L322 512.82L316.122 517.09L318.367 510.18L312.489 505.91H319.755L322 499Z" fill="#C4C4C4"/>
<path d="M352 654L354.245 660.91H361.511L355.633 665.18L357.878 672.09L352 667.82L346.122 672.09L348.367 665.18L342.489 660.91H349.755L352 654Z" fill="#C4C4C4"/>
<path d="M313.511 0L315.756 6.90983L309.878 2.63932L304 6.90983L306.245 0H313.511Z" fill="#C4C4C4"/>
</svg>
